<?xml version="1.0" encoding="utf-8"?>
<!-- Generator: Adobe Illustrator 16.0.0, SVG Export Plug-In . SVG Version: 6.00 Build 0)  -->
<!DOCTYPE svg PUBLIC "-//W3C//DTD SVG 1.1//EN" "http://www.w3.org/Graphics/SVG/1.1/DTD/svg11.dtd">
<svg version="1.1" id="图层_1" xmlns="http://www.w3.org/2000/svg" xmlns:xlink="http://www.w3.org/1999/xlink" x="0px" y="0px"
	 width="200px" height="200px" viewBox="0 0 200 200" enable-background="new 0 0 200 200" xml:space="preserve">
<g>
	<g transform="scale(0.1953125, 0.1953125)">
		<path fill="#3CB0E0" d="M925.123,513.326c0-226.917-183.94-410.859-410.856-410.859c-226.914,0-410.854,183.942-410.854,410.859
			c0,226.912,183.94,410.851,410.854,410.851c93.152,0,178.452-31.69,247.367-83.92c2.835-3.21,4.695-7.31,4.695-11.915
			c0-10.055-8.16-18.215-18.215-18.215c-5.22,0-9.865,2.07-13.185,5.58h-0.23c-61.68,45.38-137.59,72.555-220.029,72.555
			c-205.472,0-372.067-166.615-372.067-372.064c0-205.495,166.595-372.067,372.067-372.067
			c205.49,0,372.064,166.572,372.064,372.067c0,62.75-14.725,121.82-42.195,173.715v0.295c-0.5,1.73-1.05,3.42-1.05,5.28
			c0,10.06,8.15,18.21,18.21,18.21c7.84,0,14.39-5.025,16.94-11.955v0.125C907.908,645.333,925.123,581.359,925.123,513.326z
			 M629.118,492.069L459.651,324.757c-9.76-9.717-24.592-10.692-33.15-2.217c-8.515,8.492-7.542,23.24,2.22,32.957l158.017,155.925
			l-161.82,159.727c-9.762,9.72-10.735,24.47-2.197,32.96c8.535,8.495,23.367,7.52,33.127-2.2l173.25-171.09
			c5.54-5.515,8.155-12.64,7.925-19.312C637.298,504.789,634.678,497.604,629.118,492.069z"/>
	</g>
</g>
</svg>
