<?xml version="1.0" encoding="utf-8"?>
<!-- Generator: Adobe Illustrator 16.0.0, SVG Export Plug-In . SVG Version: 6.00 Build 0)  -->
<!DOCTYPE svg PUBLIC "-//W3C//DTD SVG 1.1//EN" "http://www.w3.org/Graphics/SVG/1.1/DTD/svg11.dtd">
<svg version="1.1" id="图层_1" xmlns="http://www.w3.org/2000/svg" xmlns:xlink="http://www.w3.org/1999/xlink" x="0px" y="0px"
	 width="200px" height="200px" viewBox="0 0 200 200" enable-background="new 0 0 200 200" xml:space="preserve">
<path display="none" fill="#FFFFFF" d="M200,100.25c0,53.986-42.052,97.75-93.926,97.75C46.512,198,3.5,156.234,3.5,102.25
	C3.5,48.263,46.512,2.5,106.074,2.5C157.949,2.5,200,44.93,200,100.25z"/>
<g>
	<g>
		<g transform="scale(0.1953125, 0.1953125)">
			<path fill="#3CB0E0" d="M793.668,287.624H655.883c93.445,51.772,156.76,151.297,156.76,265.694
				c0,167.695-135.945,303.649-303.652,303.649c-167.705,0-303.652-135.955-303.652-303.649
				c0-154.822,115.947-282.314,265.694-301.034v38.357c-128.71,18.46-227.737,128.857-227.737,262.677
				c0,146.74,118.957,265.694,265.694,265.694c146.742,0,265.697-118.955,265.697-265.694c0-105.96-62.1-197.272-151.825-239.902
				v145.005c0,10.487-8.5,18.982-18.98,18.982c-10.485,0-18.975-8.495-18.975-18.982v-159.65v-30.132v-8.902
				c0.715,0.188,1.485,0.257,2.21,0.447c1.25-2.457,3.02-4.49,5.16-6.19c0.945-0.775,1.94-1.455,3.025-2.035
				c0.71-0.37,1.39-0.722,2.155-0.997c2.01-0.76,4.13-1.3,6.425-1.3h189.785c10.48,0,18.975,8.5,18.975,18.977
				C812.643,279.124,804.148,287.624,793.668,287.624z"/>
		</g>
	</g>
	
		<rect x="95.929" y="34.337" transform="matrix(0.8063 -0.5914 0.5914 0.8063 -43.6935 79.4893)" fill="#3CB0E0" width="7.221" height="144.262"/>
</g>
<g display="none">
	<g transform="scale(0.1953125, 0.1953125)">
		<path display="inline" fill="#3CB0E0" d="M247.854,470.504h-40.787V275.949h40.787 M247.854,277.912h153.765v40.392H247.854
			V277.912z M805.668,587.008h36.87v178.85h-36.87V587.008z M647.978,731.353h157.69v34.505h-157.69V731.353z M207.067,732.923
			h186.702v32.935H207.067V732.923z M207.067,571.309h42.357v161.615h-42.357V571.309z M659.758,277.912h182.78v42.75h-194.56
			v-42.75H659.758z M804.098,320.662h38.44v151.802h-38.44V320.662z"/>
	</g>
</g>
<polygon display="none" fill="#3CB0E0" points="111.611,158.904 104.646,159.313 92.713,43.619 99.679,43.209 "/>
</svg>
