<?xml version="1.0" encoding="utf-8"?>
<!-- Generator: Adobe Illustrator 16.0.0, SVG Export Plug-In . SVG Version: 6.00 Build 0)  -->
<!DOCTYPE svg PUBLIC "-//W3C//DTD SVG 1.1//EN" "http://www.w3.org/Graphics/SVG/1.1/DTD/svg11.dtd">
<svg version="1.1" id="图层_1" xmlns="http://www.w3.org/2000/svg" xmlns:xlink="http://www.w3.org/1999/xlink" x="0px" y="0px"
	 width="200px" height="200px" viewBox="0 0 200 200" enable-background="new 0 0 200 200" xml:space="preserve">
<g>
	<g transform="scale(0.1953125, 0.1953125)">
		<path fill="#3CB0E0" d="M929.418,508.901c0-228.772-185.445-414.219-414.219-414.219c-228.772,0-414.216,185.447-414.216,414.219
			s185.445,414.216,414.216,414.216c93.92,0,179.91-31.95,249.389-84.605c2.86-3.235,4.735-7.37,4.735-12.015
			c0-10.135-8.225-18.36-18.365-18.36c-5.26,0-9.95,2.09-13.29,5.625h-0.235c-62.175,45.755-138.715,73.145-221.824,73.145
			c-207.157,0-375.114-167.98-375.114-375.109c0-207.174,167.957-375.109,375.114-375.109
			c207.169,0,375.109,167.935,375.109,375.109c0,63.26-14.85,122.82-42.54,175.14v0.295c-0.51,1.745-1.065,3.45-1.065,5.325
			c0,10.14,8.22,18.36,18.365,18.36c7.9,0,14.5-5.07,17.08-12.055v0.13C912.058,641.988,929.418,577.489,929.418,508.901z
			 M403.242,526.519l174.667,172.515c9.84,9.78,24.795,10.785,33.4,2.215c8.61-8.56,7.63-23.43-2.21-33.23l-163.15-161.032
			l159.31-157.202c9.84-9.8,10.82-24.667,2.24-33.232c-8.63-8.56-23.58-7.56-33.42,2.217L403.222,487.454
			c-5.602,5.58-8.245,12.825-7.967,19.617C395.019,513.801,397.662,520.959,403.242,526.519z"/>
	</g>
</g>
</svg>
